<svg width="25" height="25" viewBox="0 0 25 25" fill="none" xmlns="http://www.w3.org/2000/svg">
<circle cx="12.5" cy="12.5" r="10.5" fill="white"/>
<path d="M14.8926 12.5C14.8926 13.8214 13.8214 14.8926 12.5 14.8926C11.1786 14.8926 10.1074 13.8214 10.1074 12.5C10.1074 11.1786 11.1786 10.1074 12.5 10.1074C13.8214 10.1074 14.8926 11.1786 14.8926 12.5Z" fill="url(#paint0_linear_18_24)"/>
<path d="M18.0957 8.26683C17.9807 7.95517 17.7972 7.67307 17.5588 7.44152C17.3272 7.2031 17.0453 7.01962 16.7334 6.9046C16.4805 6.80637 16.1006 6.68945 15.4008 6.6576C14.6438 6.62308 14.4168 6.61564 12.5003 6.61564C10.5836 6.61564 10.3566 6.62289 9.59977 6.65741C8.89996 6.68945 8.51983 6.80637 8.26711 6.9046C7.95525 7.01962 7.67316 7.2031 7.4418 7.44152C7.20338 7.67307 7.01989 7.95498 6.90469 8.26683C6.80646 8.51974 6.68954 8.89988 6.65768 9.59969C6.62316 10.3565 6.61572 10.5835 6.61572 12.5002C6.61572 14.4167 6.62316 14.6437 6.65768 15.4007C6.68954 16.1005 6.80646 16.4804 6.90469 16.7334C7.01989 17.0452 7.20319 17.3271 7.4416 17.5587C7.67316 17.7971 7.95506 17.9806 8.26691 18.0956C8.51983 18.194 8.89996 18.3109 9.59977 18.3428C10.3566 18.3773 10.5834 18.3846 12.5001 18.3846C14.417 18.3846 14.6439 18.3773 15.4006 18.3428C16.1004 18.3109 16.4805 18.194 16.7334 18.0956C17.3594 17.8541 17.8542 17.3594 18.0957 16.7334C18.1939 16.4804 18.3108 16.1005 18.3429 15.4007C18.3774 14.6437 18.3846 14.4167 18.3846 12.5002C18.3846 10.5835 18.3774 10.3565 18.3429 9.59969C18.311 8.89988 18.1941 8.51974 18.0957 8.26683ZM12.5003 16.1858C10.4646 16.1858 8.81432 14.5357 8.81432 12.5C8.81432 10.4643 10.4646 8.81424 12.5003 8.81424C14.5358 8.81424 16.186 10.4643 16.186 12.5C16.186 14.5357 14.5358 16.1858 12.5003 16.1858ZM16.3318 9.52988C15.8561 9.52988 15.4704 9.14421 15.4704 8.66852C15.4704 8.19283 15.8561 7.80716 16.3318 7.80716C16.8074 7.80716 17.1931 8.19283 17.1931 8.66852C17.1929 9.14421 16.8074 9.52988 16.3318 9.52988Z" fill="url(#paint1_linear_18_24)"/>
<path d="M12.5 0C5.5975 0 0 5.5975 0 12.5C0 19.4025 5.5975 25 12.5 25C19.4025 25 25 19.4025 25 12.5C25 5.5975 19.4025 0 12.5 0ZM19.6344 15.4593C19.5997 16.2233 19.4782 16.745 19.3008 17.2016C18.928 18.1658 18.1658 18.928 17.2016 19.3008C16.7452 19.4782 16.2233 19.5995 15.4594 19.6344C14.694 19.6693 14.4495 19.6777 12.5002 19.6777C10.5507 19.6777 10.3064 19.6693 9.54075 19.6344C8.77686 19.5995 8.255 19.4782 7.79858 19.3008C7.31945 19.1206 6.88572 18.8381 6.52714 18.4729C6.16207 18.1145 5.87959 17.6805 5.69935 17.2016C5.52197 16.7452 5.40047 16.2233 5.36575 15.4594C5.33047 14.6938 5.32227 14.4493 5.32227 12.5C5.32227 10.5507 5.33047 10.3062 5.36556 9.54075C5.40028 8.77666 5.52158 8.255 5.69897 7.79839C5.87921 7.31945 6.16188 6.88553 6.52714 6.52714C6.88553 6.16188 7.31945 5.8794 7.79839 5.69916C8.255 5.52177 8.77666 5.40047 9.54075 5.36556C10.3062 5.33066 10.5507 5.32227 12.5 5.32227C14.4493 5.32227 14.6938 5.33066 15.4593 5.36575C16.2233 5.40047 16.745 5.52177 17.2016 5.69897C17.6805 5.87921 18.1145 6.16188 18.4731 6.52714C18.8381 6.88572 19.1208 7.31945 19.3008 7.79839C19.4784 8.255 19.5997 8.77666 19.6346 9.54075C19.6695 10.3062 19.6777 10.5507 19.6777 12.5C19.6777 14.4493 19.6695 14.6938 19.6344 15.4593Z" fill="url(#paint2_linear_18_24)"/>
<defs>
<linearGradient id="paint0_linear_18_24" x1="10.4287" y1="14.5808" x2="14.8625" y2="10.7427" gradientUnits="userSpaceOnUse">
<stop stop-color="#FFDD55"/>
<stop offset="0.5" stop-color="#FF543E"/>
<stop offset="1" stop-color="#C837AB"/>
</linearGradient>
<linearGradient id="paint1_linear_18_24" x1="7.40591" y1="17.6178" x2="18.3106" y2="8.17806" gradientUnits="userSpaceOnUse">
<stop stop-color="#FFDD55"/>
<stop offset="0.5" stop-color="#FF543E"/>
<stop offset="1" stop-color="#C837AB"/>
</linearGradient>
<linearGradient id="paint2_linear_18_24" x1="1.67854" y1="23.3713" x2="24.8427" y2="3.31897" gradientUnits="userSpaceOnUse">
<stop stop-color="#FFDD55"/>
<stop offset="0.5" stop-color="#FF543E"/>
<stop offset="1" stop-color="#C837AB"/>
</linearGradient>
</defs>
</svg>
