<svg width="25" height="25" viewBox="0 0 25 25" fill="none" xmlns="http://www.w3.org/2000/svg">
<path d="M12.5 25C19.4036 25 25 19.4036 25 12.5C25 5.59644 19.4036 0 12.5 0C5.59644 0 0 5.59644 0 12.5C0 19.4036 5.59644 25 12.5 25Z" fill="#55ACEE"/>
<path d="M20.1566 8.98339C19.6209 9.22092 19.0447 9.38157 18.4404 9.45332C19.0574 9.08366 19.5309 8.49874 19.7544 7.80064C19.1771 8.14312 18.5373 8.39157 17.8571 8.52548C17.312 7.94503 16.5355 7.58227 15.6756 7.58227C14.0258 7.58227 12.6878 8.92033 12.6878 10.5701C12.6878 10.8043 12.7143 11.0323 12.7655 11.2511C10.2824 11.1265 8.08065 9.93708 6.60689 8.12886C6.34975 8.57005 6.20224 9.08366 6.20224 9.63114C6.20224 10.6675 6.73011 11.5824 7.53139 12.1181C7.04184 12.1027 6.58082 11.9683 6.17818 11.744C6.17795 11.7567 6.17795 11.7694 6.17795 11.7818C6.17795 13.2295 7.20829 14.437 8.57487 14.7113C8.32442 14.7799 8.05993 14.8163 7.78786 14.8163C7.59489 14.8163 7.40794 14.7978 7.22567 14.763C7.60581 15.9498 8.70901 16.8137 10.0168 16.8379C8.99401 17.6394 7.70586 18.117 6.30563 18.117C6.06498 18.117 5.82656 18.1029 5.59326 18.0751C6.91483 18.9231 8.48574 19.4176 10.173 19.4176C15.6687 19.4176 18.6742 14.8648 18.6742 10.9162C18.6742 10.7867 18.6713 10.6577 18.6655 10.5298C19.2497 10.1087 19.7562 9.58256 20.1566 8.98339Z" fill="#F1F2F2"/>
</svg>
