<svg width="25" height="25" viewBox="0 0 25 25" fill="none" xmlns="http://www.w3.org/2000/svg">
<path d="M12.5 25C19.4036 25 25 19.4036 25 12.5C25 5.59644 19.4036 0 12.5 0C5.59644 0 0 5.59644 0 12.5C0 19.4036 5.59644 25 12.5 25Z" fill="#FF0000"/>
<path d="M19.0415 10.0878C19.0415 9.03996 18.1926 8.19062 17.1453 8.19062H8.24887C7.20178 8.19062 6.35303 9.04017 6.35303 10.0878V15.1753C6.35303 16.2232 7.20194 17.0725 8.24887 17.0725H17.1451C18.1926 17.0725 19.0413 16.2229 19.0413 15.1753V10.0878H19.0415ZM11.428 14.7778V9.99943L15.0517 12.3887L11.428 14.7778Z" fill="white"/>
</svg>
